<?xml version="1.0" standalone="no"?><!DOCTYPE svg PUBLIC "-//W3C//DTD SVG 1.1//EN" "http://www.w3.org/Graphics/SVG/1.1/DTD/svg11.dtd"><svg t="1491822587034" class="icon" style="" viewBox="0 0 1024 1024" version="1.1" xmlns="http://www.w3.org/2000/svg" p-id="2882" xmlns:xlink="http://www.w3.org/1999/xlink" width="18" height="18"><defs><style type="text/css">@font-face { font-family: uc-nexus-iconfont; src: url("chrome-extension://pogijhnlcfmcppgimcaccdkmbedjkmhi/res/font_9qmmi8b8jsxxbt9.woff") format("woff"), url("chrome-extension://pogijhnlcfmcppgimcaccdkmbedjkmhi/res/font_9qmmi8b8jsxxbt9.ttf") format("truetype"); }
</style></defs><path d="M512 1024C512 1024 93.090909 635.810909 93.090909 409.6 93.090909 183.389091 280.622545 0 512 0 743.377455 0 930.909091 183.389091 930.909091 409.6 930.909091 635.810909 512 1024 512 1024ZM512 93.090909C332.055273 93.090909 186.181818 230.865455 186.181818 400.802909 186.181818 570.740364 512 884.363636 512 884.363636 512 884.363636 837.818182 570.740364 837.818182 400.802909 837.818182 230.865455 691.944727 93.090909 512 93.090909ZM512 558.545455C434.874182 558.545455 372.363636 496.034909 372.363636 418.909091 372.363636 341.783273 434.874182 279.272727 512 279.272727 589.125818 279.272727 651.636364 341.783273 651.636364 418.909091 651.636364 496.034909 589.125818 558.545455 512 558.545455ZM512 372.363636C486.306909 372.363636 465.454545 393.216 465.454545 418.909091 465.454545 444.602182 486.306909 465.454545 512 465.454545 537.693091 465.454545 558.545455 444.602182 558.545455 418.909091 558.545455 393.216 537.693091 372.363636 512 372.363636Z" p-id="2883" fill="#707070"></path></svg>