<?xml version="1.0" standalone="no"?><!DOCTYPE svg PUBLIC "-//W3C//DTD SVG 1.1//EN" "http://www.w3.org/Graphics/SVG/1.1/DTD/svg11.dtd"><svg t="1493009125641" class="icon" style="" viewBox="0 0 1024 1024" version="1.1" xmlns="http://www.w3.org/2000/svg" p-id="15079" xmlns:xlink="http://www.w3.org/1999/xlink" width="28" height="28"><defs><style type="text/css">@font-face { font-family: uc-nexus-iconfont; src: url("chrome-extension://pogijhnlcfmcppgimcaccdkmbedjkmhi/res/font_9qmmi8b8jsxxbt9.woff") format("woff"), url("chrome-extension://pogijhnlcfmcppgimcaccdkmbedjkmhi/res/font_9qmmi8b8jsxxbt9.ttf") format("truetype"); }
</style></defs><path d="M393.71092 28.606525 78.459956 28.606525c-21.771863 0-39.406498 17.634636-39.406498 39.406498l0 315.249941c0 21.771863 17.634636 39.406498 39.406498 39.406498l315.249941 0c21.771863 0 39.406498-17.634636 39.406498-39.406498L433.116395 68.012C433.116395 46.240137 415.482783 28.606525 393.71092 28.606525zM354.304422 343.856465 117.866455 343.856465 117.866455 107.418498l236.437967 0L354.304422 343.856465z" p-id="15080" fill="#1296db"></path><path d="M196.679451 186.231495l78.812997 0 0 78.812997-78.812997 0 0-78.812997Z" p-id="15081" fill="#1296db"></path><path d="M748.367359 186.231495l78.812997 0 0 78.812997-78.812997 0 0-78.812997Z" p-id="15082" fill="#1296db"></path><path d="M196.679451 757.62214l78.812997 0 0 78.812997-78.812997 0 0-78.812997Z" p-id="15083" fill="#1296db"></path><path d="M748.367359 757.62214l78.812997 0 0 78.812997-78.812997 0 0-78.812997Z" p-id="15084" fill="#1296db"></path><path d="M945.398828 28.606525l-315.249941 0c-21.771863 0-39.406498 17.634636-39.406498 39.406498l0 315.249941c0 21.771863 17.634636 39.406498 39.406498 39.406498l315.249941 0c21.771863 0 39.406498-17.634636 39.406498-39.406498L984.805326 68.012C984.804303 46.240137 967.17069 28.606525 945.398828 28.606525zM905.992329 343.856465 669.554362 343.856465 669.554362 107.418498l236.437967 0L905.992329 343.856465z" p-id="15085" fill="#1296db"></path><path d="M945.398828 599.99717l-39.406498 0 0 78.812997 0 236.437967L669.554362 915.248134l-78.812997 0 0 39.406498c0 21.771863 17.634636 39.406498 39.406498 39.406498l315.249941 0c21.771863 0 39.406498-17.634636 39.406498-39.406498l0-315.249941C984.804303 617.651248 967.17069 599.99717 945.398828 599.99717z" p-id="15086" fill="#1296db"></path><path d="M393.71092 599.99717 78.459956 599.99717c-21.771863 0-39.406498 17.654079-39.406498 39.406498l0 315.249941c0 21.771863 17.634636 39.406498 39.406498 39.406498l315.249941 0c21.771863 0 39.406498-17.634636 39.406498-39.406498l0-315.249941C433.116395 617.651248 415.482783 599.99717 393.71092 599.99717zM354.304422 915.24711 117.866455 915.24711 117.866455 678.810167l236.437967 0L354.304422 915.24711z" p-id="15087" fill="#1296db"></path></svg>